<svg xmlns="http://www.w3.org/2000/svg" viewBox="0 0 965 459" width="965" height="459">
	<style>
		tspan { white-space:pre }
		.shp0 { fill: #000000 } 
		.shp1 { fill: #1b7d81 } 
		.shp2 { fill: #d9a828 } 
		.shp3 { fill: #7c367b } 
		.shp4 { fill: #c84427 } 
	</style>
	<g id="Layer 1">
		<g id="&lt;Group&gt;">
			<g id="&lt;Group&gt;">
				<g id="&lt;Group&gt;">
					<path id="&lt;Compound Path&gt;" fill-rule="evenodd" class="shp0" d="M6.54 349.55C6.54 349.2 6.89 347.79 6.89 347.08C6.89 344.25 6.89 340.72 7.24 337.53C7.95 330.82 8.66 324.1 10.07 317.74C11.13 314.55 11.48 311.37 11.13 307.84C10.42 306.07 11.84 304.3 12.19 302.18C13.96 295.46 15.02 288.75 16.43 281.68C16.79 277.79 16.79 274.61 17.14 270.72C17.85 267.53 19.26 264.71 19.26 261.17C19.26 258.7 19.61 256.57 20.68 254.1C21.03 253.75 21.38 252.69 21.38 251.98C22.44 247.03 22.8 241.37 23.86 236.42C25.62 231.12 23.15 225.11 27.04 220.16C27.04 219.93 27.04 219.81 27.04 219.81C25.62 212.74 30.22 206.37 29.87 199.66C29.51 199.3 29.51 198.24 29.87 197.89C33.4 190.82 33.05 182.69 34.46 174.91C35.17 170.67 36.94 166.43 38.35 161.83C39.77 155.47 41.18 149.45 42.95 143.09C44.36 138.14 46.48 133.55 48.96 128.6C49.67 126.83 50.73 125.06 52.14 123.29C54.61 116.93 59.56 114.1 65.93 113.75C70.88 112.69 76.53 118.34 76.89 123.29C76.89 124.71 77.24 126.48 76.89 128.24C75.83 132.13 77.95 133.55 81.13 134.25C86.08 135.31 89.61 138.85 93.15 141.68C93.86 142.38 94.92 144.15 94.56 145.57C92.44 149.81 94.56 154.4 95.62 158.65C96.33 163.6 97.39 168.19 98.45 173.14C99.16 175.97 100.22 179.51 100.22 182.69C101.28 188.7 103.76 193.65 106.23 199.3C108.35 204.61 109.41 210.62 110.83 215.92C111.53 218.04 111.89 219.81 112.95 221.93C113.65 226.17 115.42 230.77 116.13 235.36C116.13 235.72 116.13 236.42 116.13 237.13C116.13 239.96 116.13 242.08 117.9 244.56C120.73 249.86 121.79 256.22 122.49 261.88C118.25 268.59 124.61 272.48 126.74 277.08C128.5 280.97 128.86 284.15 126.74 287.69C125.67 289.45 124.61 291.22 127.44 292.64C127.8 292.99 128.5 294.76 128.5 295.46C128.86 296.52 128.86 297.58 129.21 298.64C132.04 301.47 132.04 305.01 132.39 308.54C132.39 311.37 132.04 313.85 134.16 315.61C134.51 315.97 134.51 317.38 134.51 317.74C133.45 319.86 131.68 321.98 133.81 324.45C133.33 325.4 132.86 325.99 132.39 326.22C129.92 326.93 129.92 327.28 132.39 328.34C135.93 329.05 135.57 332.58 136.63 335.06C138.05 336.83 138.05 339.3 138.05 341.42C138.05 346.37 137.69 350.61 138.75 355.56C140.17 358.75 138.75 362.64 136.63 366.17C136.28 366.88 136.28 367.94 136.28 368.64C138.05 371.12 139.11 373.59 140.88 375.71C141.94 377.84 142.29 378.9 139.82 380.31C136.99 381.37 134.87 383.85 131.33 384.55C128.5 384.91 126.03 384.91 123.91 383.49C119.66 381.37 115.78 379.96 110.83 379.96C107.29 380.31 104.46 377.13 104.11 373.59C104.11 369.35 104.11 365.11 103.4 360.87C101.99 353.09 102.69 345.31 101.99 337.53C101.28 331.17 99.87 324.45 98.1 318.09C97.39 315.26 98.45 312.43 96.33 309.96C95.62 309.25 97.04 307.13 97.04 305.72C97.04 301.83 95.98 297.94 95.27 294.4C94.56 290.16 93.15 289.81 89.26 291.93C83.6 294.76 77.59 297.23 70.52 297.58C67.7 297.94 64.87 299.71 62.04 300.41C57.09 301.47 52.49 301.83 47.9 303.24C46.48 303.24 45.78 304.3 45.42 305.01C43.66 308.19 42.95 311.37 39.77 313.85C39.41 314.55 39.77 316.68 39.77 317.38C44.36 325.16 42.24 332.94 36.94 339.65C36.58 340.01 35.88 341.78 36.23 342.48C37.29 345.31 36.23 347.43 34.82 349.91C33.05 353.09 33.05 355.92 33.4 359.1C33.4 362.28 34.11 365.11 34.82 367.94C36.23 372.18 34.46 377.13 34.11 381.37C33.76 382.79 33.4 383.85 32.7 384.55C29.87 386.67 28.1 388.8 27.39 391.98C27.04 395.87 20.68 399.05 16.43 399.76C12.19 400.46 9.01 398.7 4.77 397.99C1.94 397.28 0.17 394.1 0.17 391.27C0.17 388.09 0.52 385.61 0.52 383.14C2.29 371.83 4.77 360.87 6.54 349.55ZM15.02 326.57C16.08 325.16 16.43 324.45 17.14 323.75C17.14 323.39 16.43 322.69 16.43 321.98C15.73 322.69 14.67 323.75 14.31 324.1C14.67 324.81 14.67 325.87 15.02 326.57ZM23.5 277.43L23.15 277.79L23.5 277.79L23.5 277.43ZM24.92 333.29C25.15 333.06 25.39 332.94 25.62 332.94C25.62 332.58 25.27 331.88 24.92 331.52C24.68 331.76 24.21 332.11 23.5 332.58C23.86 332.94 24.56 333.29 24.92 333.29ZM24.92 266.83C25.27 266.12 25.98 265.41 25.98 264.71C25.98 263.65 25.62 262.94 25.27 261.88C24.92 262.94 24.56 263.65 23.86 264C24.56 265.41 24.56 266.12 24.92 266.83ZM24.92 315.97L25.27 316.68L25.27 315.97L24.92 315.97ZM25.62 247.03C25.27 247.03 25.27 247.03 25.27 247.38C25.04 247.38 25.04 247.38 25.27 247.38C25.51 247.38 25.62 247.27 25.62 247.03ZM27.39 257.99C27.39 257.52 27.28 257.28 27.04 257.28L26.33 257.28C26.33 257.99 27.04 258.34 27.04 258.7C27.04 258.34 27.39 258.34 27.39 257.99ZM27.04 233.95L27.04 234.3L27.39 234.3L27.39 233.95L27.04 233.95ZM28.1 252.33C28.45 252.33 28.1 251.98 27.75 251.63C27.28 251.86 27.04 252.1 27.04 252.33C27.04 252.57 27.16 252.92 27.39 253.39C27.75 253.39 28.1 252.69 28.1 252.33ZM31.64 226.88C31.28 226.17 30.22 225.46 30.22 225.11C29.87 224.76 29.51 225.46 28.45 225.46C29.51 226.17 30.22 226.88 30.57 227.59C31.28 227.23 31.99 226.88 31.64 226.88ZM30.22 233.24C30.22 233.6 30.22 233.95 30.22 234.3C30.22 233.95 30.57 233.6 31.28 233.24C31.28 232.53 30.57 232.18 30.57 231.47C30.22 232.18 30.22 232.53 30.22 233.24ZM31.99 290.16C32.34 290.16 32.7 289.81 33.05 289.45C32.7 289.1 32.7 288.39 32.34 288.39C31.99 288.39 31.64 289.1 30.57 289.1C31.28 289.81 31.64 290.16 31.99 290.16ZM31.99 212.03C31.99 211.68 31.99 211.32 31.64 211.32C31.4 211.56 31.28 211.79 31.28 212.03C30.57 212.03 31.28 212.38 31.28 213.09C31.64 212.74 31.99 212.38 31.99 212.03ZM35.17 270.36C36.23 270.01 36.58 269.66 36.94 268.59L36.58 267.53C35.88 267.89 34.82 268.24 33.05 269.66C34.11 270.01 34.82 270.36 35.17 270.36ZM35.17 209.2C34.82 209.2 34.82 209.2 34.46 209.2C34.7 209.44 34.82 209.56 34.82 209.56C35.17 209.56 35.17 209.56 35.17 209.2ZM35.88 206.02C36.11 206.02 36.35 205.67 36.58 204.96C36.58 204.61 36.23 204.25 35.88 203.9C35.88 204.25 35.17 204.61 34.82 204.96C35.05 204.96 35.41 205.31 35.88 206.02ZM40.47 180.92C39.77 181.27 39.77 181.63 39.41 182.33C39.65 183.04 39.77 183.51 39.77 183.75C40.47 182.69 40.83 182.33 41.18 181.63C40.94 181.39 40.71 181.16 40.47 180.92ZM42.95 176.68C42.24 175.97 41.89 175.62 41.53 175.62C40.83 175.62 40.47 176.68 39.77 177.03C39.77 177.38 40.47 177.74 40.83 177.74C41.53 177.74 41.89 177.74 42.95 177.74C42.95 177.38 42.95 177.03 42.95 176.68ZM49.67 290.51C53.91 290.16 57.09 289.1 60.98 288.04C69.11 285.21 77.95 283.44 86.43 281.32C89.61 280.62 91.73 277.79 91.03 275.31C89.61 270.01 87.85 265.06 86.43 259.76C86.08 258.7 85.73 257.28 85.73 256.22C84.31 248.8 83.25 241.37 81.48 233.95C81.13 231.83 80.07 231.12 79.36 229C77.95 225.11 77.59 220.87 76.53 216.27C75.12 212.38 74.41 208.5 73 204.25C72.29 201.78 71.58 198.6 70.52 196.12C69.11 192.59 66.28 189.76 66.28 185.87C66.28 184.1 64.87 184.1 64.16 184.81C62.04 186.93 60.62 188.7 60.98 191.53C61.33 197.54 59.56 203.19 57.44 208.85C56.74 210.62 55.67 213.45 56.38 214.51C58.86 218.39 57.09 220.87 55.67 224.05C53.91 226.88 52.85 229.71 53.91 233.6C54.61 236.78 54.61 241.37 52.49 244.56C50.73 247.74 50.37 251.63 50.73 255.16C51.08 257.28 50.73 259.76 49.31 261.17C47.54 263.65 47.54 265.77 47.54 267.89C47.9 274.61 47.54 280.97 47.54 286.63C45.78 290.16 46.48 290.51 49.67 290.51ZM91.03 237.13C91.38 238.19 92.44 238.19 92.8 238.55C92.8 238.19 93.15 237.13 93.15 236.78C92.8 235.36 92.44 233.95 91.38 232.18C91.38 231.83 90.67 231.47 90.67 231.12C90.67 231.47 90.32 231.83 89.26 233.24C90.32 234.3 90.67 235.72 91.03 237.13ZM93.86 230.06C93.86 229.71 93.86 229.35 93.86 229C93.5 229.35 93.15 229.35 93.15 229.71C93.15 230.06 93.5 230.77 93.5 231.47C93.74 231 93.86 230.53 93.86 230.06ZM98.1 248.09C97.74 247.74 97.39 247.38 97.04 247.38C97.04 247.03 96.33 247.74 95.62 247.74C95.98 248.09 96.33 248.8 97.04 249.15C97.39 248.8 97.74 248.8 98.1 248.09ZM101.99 247.74C101.75 247.74 101.52 247.74 101.28 247.74C101.28 247.74 101.28 247.85 101.28 248.09C101.28 248.09 101.4 248.33 101.63 248.8C101.63 248.09 101.99 248.09 101.99 247.74ZM107.64 293.34C106.94 294.05 106.58 294.4 106.58 295.11C106.58 295.35 106.58 295.7 106.58 296.17C107.29 295.46 108.35 295.46 109.06 295.11C108.35 294.4 108.35 294.05 107.64 293.34ZM109.77 304.3C110.24 304.07 110.59 303.83 110.83 303.59C109.77 302.53 109.41 302.18 108.7 301.83C108.35 301.83 107.64 301.83 107.29 301.83C108.7 302.53 109.41 303.59 109.77 304.3ZM109.77 317.03C109.41 317.38 108.7 317.74 108.7 318.09C108.7 319.15 109.41 319.5 109.77 320.21C109.77 319.86 110.83 319.5 111.53 318.8C110.83 317.74 110.47 317.38 109.77 317.03ZM113.3 308.54C113.3 308.31 112.95 308.07 112.24 307.84C111.53 308.19 110.83 308.19 110.47 308.54C110.47 309.25 110.83 310.31 111.18 311.37C112.24 309.96 112.95 309.25 113.3 308.54ZM114.36 302.53C114.01 302.53 113.65 303.24 113.3 303.24C113.65 303.59 114.01 303.95 114.36 303.95C115.07 303.95 115.42 303.59 115.78 303.24C115.3 302.77 114.83 302.53 114.36 302.53ZM116.13 334C115.78 333.64 115.42 333.64 115.07 333.64C114.6 333.64 114.24 333.76 114.01 334C114.36 334 115.07 334.7 115.42 335.06C115.78 334.7 115.78 334 116.13 334ZM96.33 240.31L97.04 240.31L96.33 240.31ZM118.25 362.99L118.25 362.64L118.25 362.99Z" />
					<path id="&lt;Compound Path&gt;" fill-rule="evenodd" class="shp0" d="M144.76 277.79C144.4 278.14 143.7 278.49 143.34 278.85C143.34 278.49 142.99 277.79 143.34 277.08C143.7 266.47 146.88 256.22 150.06 245.97C153.24 238.19 156.07 230.77 159.25 223.34C162.79 216.27 167.38 210.26 173.04 204.96C179.4 198.6 187.54 195.77 195.31 192.94C202.38 190.46 209.81 189.76 216.88 194.35C220.06 196.83 220.41 200.01 221.47 203.19C223.24 206.73 223.24 211.32 224.3 215.57C225.36 219.45 226.78 224.05 227.48 228.29C228.55 232.89 229.61 238.19 228.9 242.79C228.19 248.8 221.83 250.92 217.59 254.81C217.23 255.16 215.46 254.81 214.76 254.1C212.99 251.98 210.51 249.86 209.45 247.38C208.04 243.49 207.33 239.25 206.63 235.01C206.27 234.3 205.92 232.89 205.21 231.83C203.44 229 200.26 229 198.85 231.83C197.08 236.07 195.31 240.31 193.55 244.56C193.19 244.91 192.84 245.97 192.49 246.68C187.54 252.69 187.18 260.46 185.41 267.18C183.65 275.31 181.88 283.44 180.46 291.57C179.4 296.88 179.05 301.83 178.7 307.48C178.34 311.37 177.64 315.26 177.64 319.5C177.28 323.04 177.99 326.57 178.34 330.11C178.7 333.64 180.11 337.18 176.22 340.01C175.87 340.36 176.22 342.48 176.93 343.19C178.7 346.37 181.17 348.85 182.94 351.68C184.35 354.15 185.41 352.74 186.47 351.68C191.42 347.08 197.08 342.84 201.32 337.53C206.63 332.58 210.51 326.93 215.46 321.27C216.52 320.56 218.29 319.15 219 319.5C220.41 320.56 222.18 321.63 220.77 324.45C216.17 335.41 211.93 346.37 206.98 356.62C205.21 359.1 203.8 361.93 202.74 364.76C202.74 365.46 201.68 366.52 200.97 366.88C193.9 370.77 186.83 375.01 178.34 372.53C175.16 371.83 171.27 371.83 167.74 371.83C159.61 370.77 153.24 367.58 148.29 360.51C142.28 352.38 139.81 343.19 139.45 333.64C139.1 331.88 137.69 330.46 137.69 328.34C137.33 323.75 137.33 318.8 137.33 314.55C138.39 305.01 140.16 296.17 141.22 286.98C141.58 285.57 140.52 282.74 144.05 283.8C144.4 282.03 144.76 280.26 145.11 278.85C145.47 278.14 145.47 277.43 145.82 276.37C145.82 276.14 145.94 275.9 146.17 275.67C146.53 274.61 146.88 273.19 146.88 272.13C146.88 271.42 146.53 270.72 146.53 270.01C146.17 272.13 145.82 274.25 145.82 276.37C145.47 277.08 145.11 277.43 144.76 277.79ZM141.22 319.5L141.58 319.15C141.34 319.15 141.22 319.03 141.22 318.8L140.87 319.15C141.11 319.15 141.22 319.27 141.22 319.5ZM146.53 329.05C146.88 330.11 146.88 331.17 147.23 331.88C147.94 332.58 149 332.94 150.06 332.94C150.77 331.99 151.12 331.41 151.12 331.17C150.06 327.64 150.41 324.1 151.83 320.92C152.18 320.21 151.12 318.44 150.41 318.44C149 317.74 147.23 317.74 147.23 320.56C147.23 323.39 147.23 326.22 147.23 329.05C146.88 329.05 146.88 329.05 146.53 329.05ZM149.71 314.55C150.77 315.97 153.95 312.43 154.3 309.96C154.3 309.6 154.3 309.25 154.3 308.9C155.01 307.84 155.72 306.78 156.43 305.36C156.43 305.01 157.13 304.3 156.78 303.95C156.43 303.24 155.72 302.89 155.01 302.89C151.48 302.18 147.94 305.72 147.59 310.67C147.94 311.37 148.29 313.85 149.71 314.55ZM147.94 265.41C148.29 264.71 149 264.35 149 263.65C151.12 257.28 153.24 250.92 155.01 244.2C155.01 243.85 155.01 243.49 155.01 243.14C154.66 243.49 153.95 243.49 153.6 244.2C151.83 250.57 150.06 257.28 147.94 262.94C147.94 264 147.94 264.71 147.94 265.41ZM149.71 342.84C149.71 342.48 150.06 342.13 150.06 341.78C149.71 341.07 149.35 340.72 149 340.36C148.65 340.36 148.29 340.72 147.94 341.07C148.65 341.78 149 342.48 149.71 342.84ZM156.07 285.92C155.01 285.21 154.3 284.15 153.24 283.09C153.24 283.8 152.18 284.5 152.54 284.5C153.24 285.57 153.6 286.27 154.66 287.69C155.36 286.63 156.07 286.27 156.07 285.92ZM157.84 318.09C157.84 317.74 157.49 316.68 157.49 315.97C156.78 315.97 156.43 315.97 156.43 316.32C155.01 318.8 153.24 320.92 154.3 324.1C155.01 325.87 155.36 327.28 157.49 325.87C159.25 325.16 160.31 324.81 158.55 322.69C157.84 321.63 157.84 319.86 157.49 318.44L157.84 318.09ZM158.9 277.08C158.19 276.37 157.13 275.67 156.78 276.02C156.07 276.37 155.01 277.43 154.3 278.49C155.01 278.85 155.36 279.55 156.43 280.26C157.49 279.2 158.19 278.14 158.9 277.08ZM156.43 266.83C157.13 266.83 157.84 266.47 158.19 265.77C158.9 265.06 159.61 264 159.96 263.29C160.67 262.58 161.37 261.52 161.73 260.46C161.26 260.23 160.9 260.11 160.67 260.11C159.61 260.46 158.19 260.46 157.13 261.52C156.43 262.23 156.43 263.65 156.07 265.06C156.43 265.77 156.43 266.47 156.43 266.83ZM157.13 237.13L157.49 237.13L157.49 236.78L157.13 237.13ZM160.31 254.45C160.08 254.45 159.84 254.57 159.61 254.81C159.61 255.16 159.96 255.51 159.96 255.87C160.31 255.51 160.67 255.51 160.67 255.16C160.67 254.69 160.55 254.45 160.31 254.45Z" />
					<path id="&lt;Compound Path&gt;" fill-rule="evenodd" class="shp0" d="M239.5 277.79C239.14 278.14 238.44 278.49 238.08 278.85C238.08 278.49 237.73 277.79 238.08 277.08C238.44 266.47 241.62 256.22 244.8 245.97C247.98 238.19 250.81 230.77 253.99 223.34C257.53 216.27 262.12 210.26 267.78 204.96C274.14 198.6 282.27 195.77 290.05 192.94C297.12 190.46 304.55 189.76 311.62 194.35C314.8 196.83 315.15 200.01 316.21 203.19C317.98 206.73 317.98 211.32 319.04 215.57C320.1 219.45 321.52 224.05 322.22 228.29C323.28 232.89 324.34 238.19 323.64 242.79C322.93 248.8 316.57 250.92 312.32 254.81C311.97 255.16 310.2 254.81 309.5 254.1C307.73 251.98 305.25 249.86 304.19 247.38C302.78 243.49 302.07 239.25 301.37 235.01C301.01 234.3 300.66 232.89 299.95 231.83C298.18 229 295 229 293.59 231.83C291.82 236.07 290.05 240.31 288.28 244.56C287.93 244.91 287.58 245.97 287.22 246.68C282.27 252.69 281.92 260.46 280.15 267.18C278.39 275.31 276.62 283.44 275.2 291.57C274.14 296.88 273.79 301.83 273.44 307.48C273.08 311.37 272.37 315.26 272.37 319.5C272.02 323.04 272.73 326.57 273.08 330.11C273.44 333.64 274.85 337.18 270.96 340.01C270.61 340.36 270.96 342.48 271.67 343.19C273.44 346.37 275.91 348.85 277.68 351.68C279.09 354.15 280.15 352.74 281.21 351.68C286.16 347.08 291.82 342.84 296.06 337.53C301.37 332.58 305.25 326.93 310.2 321.27C311.26 320.56 313.03 319.15 313.74 319.5C315.15 320.56 316.92 321.63 315.51 324.45C310.91 335.41 306.67 346.37 301.72 356.62C299.95 359.1 298.54 361.93 297.48 364.76C297.48 365.46 296.42 366.52 295.71 366.88C288.64 370.77 281.57 375.01 273.08 372.53C269.9 371.83 266.01 371.83 262.48 371.83C254.35 370.77 247.98 367.58 243.03 360.51C237.02 352.38 234.55 343.19 234.19 333.64C233.84 331.88 232.43 330.46 232.43 328.34C232.07 323.75 232.07 318.8 232.07 314.55C233.13 305.01 234.9 296.17 235.96 286.98C236.31 285.57 235.25 282.74 238.79 283.8C239.14 282.03 239.5 280.26 239.85 278.85C240.2 278.14 240.2 277.43 240.56 276.37C240.56 276.14 240.68 275.9 240.91 275.67C241.26 274.61 241.62 273.19 241.62 272.13C241.62 271.42 241.26 270.72 241.26 270.01C240.91 272.13 240.56 274.25 240.56 276.37C240.2 277.08 239.85 277.43 239.5 277.79ZM235.96 319.5L236.31 319.15C236.08 319.15 235.96 319.03 235.96 318.8L235.61 319.15C235.84 319.15 235.96 319.27 235.96 319.5ZM241.26 329.05C241.62 330.11 241.62 331.17 241.97 331.88C242.68 332.58 243.74 332.94 244.8 332.94C245.51 331.99 245.86 331.41 245.86 331.17C244.8 327.64 245.15 324.1 246.57 320.92C246.92 320.21 245.86 318.44 245.15 318.44C243.74 317.74 241.97 317.74 241.97 320.56C241.97 323.39 241.97 326.22 241.97 329.05C241.62 329.05 241.62 329.05 241.26 329.05ZM244.45 314.55C245.51 315.97 248.69 312.43 249.04 309.96C249.04 309.6 249.04 309.25 249.04 308.9C249.75 307.84 250.46 306.78 251.16 305.36C251.16 305.01 251.87 304.3 251.52 303.95C251.16 303.24 250.46 302.89 249.75 302.89C246.21 302.18 242.68 305.72 242.33 310.67C242.68 311.37 243.03 313.85 244.45 314.55ZM242.68 265.41C243.03 264.71 243.74 264.35 243.74 263.65C245.86 257.28 247.98 250.92 249.75 244.2C249.75 243.85 249.75 243.49 249.75 243.14C249.4 243.49 248.69 243.49 248.34 244.2C246.57 250.57 244.8 257.28 242.68 262.94C242.68 264 242.68 264.71 242.68 265.41ZM244.45 342.84C244.45 342.48 244.8 342.13 244.8 341.78C244.45 341.07 244.09 340.72 243.74 340.36C243.39 340.36 243.03 340.72 242.68 341.07C243.39 341.78 243.74 342.48 244.45 342.84ZM250.81 285.92C249.75 285.21 249.04 284.15 247.98 283.09C247.98 283.8 246.92 284.5 247.27 284.5C247.98 285.57 248.34 286.27 249.4 287.69C250.1 286.63 250.81 286.27 250.81 285.92ZM252.58 318.09C252.58 317.74 252.22 316.68 252.22 315.97C251.52 315.97 251.16 315.97 251.16 316.32C249.75 318.8 247.98 320.92 249.04 324.1C249.75 325.87 250.1 327.28 252.22 325.87C253.99 325.16 255.05 324.81 253.29 322.69C252.58 321.63 252.58 319.86 252.22 318.44L252.58 318.09ZM253.64 277.08C252.93 276.37 251.87 275.67 251.52 276.02C250.81 276.37 249.75 277.43 249.04 278.49C249.75 278.85 250.1 279.55 251.16 280.26C252.22 279.2 252.93 278.14 253.64 277.08ZM251.16 266.83C251.87 266.83 252.58 266.47 252.93 265.77C253.64 265.06 254.35 264 254.7 263.29C255.41 262.58 256.11 261.52 256.47 260.46C255.99 260.23 255.64 260.11 255.41 260.11C254.35 260.46 252.93 260.46 251.87 261.52C251.16 262.23 251.16 263.65 250.81 265.06C251.16 265.77 251.16 266.47 251.16 266.83ZM251.87 237.13L252.22 237.13L252.22 236.78L251.87 237.13ZM255.05 254.45C254.82 254.45 254.58 254.57 254.35 254.81C254.35 255.16 254.7 255.51 254.7 255.87C255.05 255.51 255.41 255.51 255.41 255.16C255.41 254.69 255.29 254.45 255.05 254.45Z" />
					<path id="&lt;Compound Path&gt;" fill-rule="evenodd" class="shp0" d="M333.18 295.82L333.18 295.46C333.18 293.7 337.77 288.75 337.77 285.92C337.77 285.57 337.77 285.21 337.42 284.86C337.07 284.15 336.71 283.09 336.71 282.38C336.71 280.62 337.42 278.85 337.77 277.08C338.83 272.13 339.89 266.83 340.95 261.52C341.31 260.82 341.66 260.11 342.37 260.11C347.32 259.4 345.2 254.45 346.61 251.98C346.61 251.98 346.61 251.86 346.61 251.63C346.61 251.27 346.61 250.92 346.26 250.57C345.2 249.51 344.84 248.44 344.84 247.74C344.84 245.97 345.9 244.56 346.26 243.14C349.44 235.36 355.45 229.71 361.81 225.11C368.18 220.16 374.89 215.92 382.67 213.45C383.73 213.09 384.44 213.09 385.5 213.09C392.57 213.09 398.93 218.75 399.64 225.82C399.64 227.23 399.99 228.65 400.35 230.06C400.35 230.77 400.7 231.47 400.7 231.83C400.7 236.07 400.7 240.67 399.99 244.56C399.64 249.15 397.87 253.39 397.17 257.64C396.81 258.34 396.81 259.4 396.81 260.11C396.81 261.52 397.17 262.94 397.17 264.35C396.81 266.12 396.81 267.53 396.46 269.3C395.75 270.72 393.98 272.48 393.98 273.9C393.98 274.25 393.98 274.25 393.98 274.61C393.98 279.55 390.8 282.03 387.62 284.86C386.56 285.92 385.15 287.69 384.09 289.45C381.61 295.11 377.72 298.64 371.71 300.77C368.88 301.83 367.12 303.59 367.12 306.78C367.12 308.9 367.12 311.37 367.12 313.49C367.12 316.68 367.47 320.21 368.88 323.39C369.59 324.1 369.59 325.51 369.59 326.93C369.59 327.64 369.59 328.34 369.59 329.05C369.59 331.52 368.53 334.7 368.53 337.18C368.53 337.89 368.53 338.95 368.88 339.65C370.65 344.96 371.36 350.61 375.95 354.5C376.66 355.21 377.72 355.92 378.08 356.27C381.26 359.1 383.38 360.87 385.5 360.87C387.27 360.87 389.74 359.45 392.92 357.33C395.75 351.32 432.17 308.9 437.47 308.9C437.82 308.9 438.17 309.25 438.17 309.96C438.17 312.43 429.69 324.45 419.08 341.42C419.08 346.37 417.67 350.97 413.43 354.5C405.65 364.05 404.59 367.94 398.23 370.41C396.46 371.47 392.22 373.24 390.1 373.24C389.39 373.24 389.04 373.24 388.33 373.24C384.09 373.24 380.9 370.06 376.66 370.77C375.25 371.12 374.54 371.12 373.48 371.12C370.3 371.12 367.12 370.06 364.29 368.64C359.34 366.52 355.1 363.34 350.85 360.51C341.31 353.09 338.48 342.84 337.07 331.88C337.07 331.17 337.07 330.46 337.42 330.11C337.42 330.46 337.42 331.17 337.77 331.52C338.13 332.23 338.48 332.58 338.83 333.29C339.19 332.58 339.54 331.88 339.54 330.82C339.19 327.99 337.07 325.87 336.36 323.75L333.18 295.82ZM339.19 279.55C339.54 278.49 339.89 277.79 340.25 277.08C340.25 276.73 339.89 276.37 339.89 276.02C339.54 276.37 339.19 277.43 338.83 278.14C338.83 278.49 339.19 278.85 339.19 279.55ZM340.95 271.42C341.02 270.99 341.08 270.55 341.14 270.11C340.97 270.54 340.79 270.98 340.6 271.42C340.6 271.78 340.6 272.48 340.6 272.84C340.6 272.48 340.95 272.13 340.95 271.42ZM343.08 264C343.08 263.65 342.72 263.65 342.72 263.29C342.72 263.53 342.6 263.65 342.37 263.65C341.79 265.97 341.44 268.06 341.14 270.11C341.92 268.16 342.5 266.32 343.08 264ZM342.37 327.99C342.72 327.28 342.72 326.57 343.08 325.87C343.08 325.51 342.72 325.16 342.37 324.81C342.37 325.87 342.02 326.57 341.66 327.28C341.66 327.64 342.02 327.64 342.37 327.99ZM343.08 339.65C343.08 339.89 342.96 340.13 342.72 340.36C342.72 340.6 342.96 340.83 343.43 341.07C343.78 341.07 343.78 340.72 343.78 340.36C343.43 340.01 343.43 340.01 343.08 339.65ZM343.78 289.1L344.14 289.1C344.14 288.39 344.14 288.04 344.14 287.33C344.84 288.04 345.2 289.1 345.9 289.1C346.26 289.1 346.96 288.75 347.67 288.04C347.67 287.69 347.67 287.69 347.67 287.33C347.67 286.63 347.32 285.92 346.96 285.57C346.73 285.57 346.37 285.45 345.9 285.21C344.84 285.21 344.14 285.92 344.14 287.33C344.14 288.04 343.78 288.75 343.78 289.1ZM347.67 278.85C347.67 278.49 346.96 278.14 346.61 277.79C346.26 278.49 345.9 279.55 345.9 279.91C345.9 280.26 346.26 280.62 346.96 280.97C347.32 279.91 347.67 279.55 347.67 278.85ZM346.96 292.28C346.96 292.28 346.85 292.28 346.61 292.28C346.85 292.28 346.96 292.4 346.96 292.64C346.96 292.4 346.96 292.28 346.96 292.28ZM346.96 292.64C346.96 292.64 346.96 292.64 346.96 292.64ZM348.73 274.25C349.09 273.19 349.79 272.48 349.79 271.42C349.79 270.36 349.09 269.66 348.73 268.59C348.38 269.66 347.67 270.36 346.96 271.78C347.67 272.84 348.38 273.54 348.73 274.25ZM352.27 325.87C352.27 325.51 351.21 324.45 350.5 324.45L350.15 324.45C349.44 324.45 349.09 325.51 348.03 326.22C348.73 326.93 349.09 327.28 350.15 328.34C351.21 327.28 351.91 326.93 352.27 325.87ZM351.91 317.74C351.56 317.74 351.21 317.74 350.85 317.38C350.85 317.74 351.21 318.44 351.21 319.15C349.79 319.86 348.38 319.86 348.38 321.27C348.38 321.27 348.38 321.39 348.38 321.63C348.73 322.33 349.44 323.04 349.79 323.04C351.21 322.69 351.56 321.98 351.56 320.92C351.56 320.56 351.21 319.86 351.21 319.15C351.56 318.44 351.56 318.09 351.91 317.74ZM349.09 330.46C349.09 330.46 349.09 330.58 349.09 330.82C349.09 331.05 349.09 331.17 349.09 331.17C349.44 331.17 349.44 330.82 349.44 330.46L349.09 330.46ZM352.27 344.96C352.74 344.72 353.09 344.37 353.33 343.9C353.68 343.19 354.39 342.48 355.1 341.78C355.1 341.07 355.1 340.36 355.1 340.01C354.04 340.01 352.62 340.01 352.27 340.01C351.6 341.01 351.25 342.33 350.91 343.36C351.25 344.33 351.6 344.96 352.27 344.96ZM350.91 343.36C350.89 343.31 350.87 343.25 350.85 343.19C350.85 343.19 350.85 343.31 350.85 343.54C350.87 343.48 350.89 343.42 350.91 343.36ZM358.63 350.61C358.28 349.91 357.92 349.2 357.57 348.49C357.22 348.49 356.51 348.85 356.51 349.2C356.51 349.55 356.86 350.61 357.22 352.38C357.92 351.32 358.63 350.97 358.63 350.61ZM384.79 228.65C384.44 227.94 383.73 227.23 383.02 226.52C382.32 227.59 380.9 228.65 380.9 229.71C380.9 230.06 380.9 230.77 380.9 231.12C380.9 235.01 379.49 238.19 377.72 241.73C376.66 243.85 375.95 245.26 375.95 247.38C375.95 247.74 375.95 248.44 376.31 249.15C376.31 249.86 376.31 250.21 376.31 250.92C376.31 252.33 375.95 253.75 375.25 254.81C374.54 257.28 372.42 258.7 371 260.46C370.65 261.17 369.94 261.88 369.94 262.23L369.94 262.58C371 264.35 371.36 266.83 371.36 268.95C371.36 270.01 371.36 271.78 371 273.19C371 273.54 371.36 274.61 371.36 275.31C372.06 274.61 373.13 274.61 373.48 273.9C374.89 272.48 376.66 270.72 377.72 268.95C384.09 259.76 385.5 249.15 385.85 237.84C385.5 235.01 385.15 231.83 384.79 228.65ZM397.17 367.94C397.17 367.7 397.17 367.58 397.17 367.58C396.93 367.58 396.81 367.7 396.81 367.94C397.05 367.94 397.17 367.94 397.17 367.94Z" />
					<path id="&lt;Compound Path&gt;" fill-rule="evenodd" class="shp0" d="M486.25 113.04C484.13 119.76 485.19 127.18 484.13 134.96C483.07 141.32 482.71 148.39 482.01 155.11C481.3 156.88 481.3 157.94 481.3 159C481.3 159.35 481.65 160.41 481.3 161.12C479.89 161.12 478.83 161.83 478.83 163.24C478.83 164.3 478.83 164.66 480.24 165.72C479.53 166.42 479.18 166.78 479.18 167.48C479.18 168.19 480.24 169.61 480.59 170.67L480.59 171.02C480.24 173.49 480.24 176.68 480.24 179.15C480.24 180.21 480.59 180.92 480.59 181.98C480.59 182.69 480.59 183.04 480.59 183.39C480.59 185.51 480.59 187.99 480.59 189.76C480.95 191.53 481.3 192.94 482.01 194.71C482.01 195.06 482.36 195.77 482.36 196.12C482.71 197.53 481.3 199.3 480.59 200.36C479.89 202.48 478.83 203.54 477.77 205.31C477.41 205.67 476.7 206.37 477.06 206.73C478.47 208.14 478.83 208.85 478.83 210.26C478.83 211.68 478.83 212.38 478.83 213.8C478.83 214.86 478.83 215.56 479.53 216.63C480 217.1 480.24 217.69 480.24 218.39C478.83 219.1 478.47 220.16 478.47 221.22C478.83 222.28 479.53 223.7 479.89 225.11C480.24 226.17 480.59 227.59 480.59 227.94C480.59 231.12 479.89 233.95 479.89 236.78C479.89 239.96 479.18 243.14 478.83 246.68C478.83 247.74 478.83 250.21 477.06 251.62C476.7 251.98 476.35 253.04 476.7 254.1C476.7 255.16 476.7 256.93 477.06 258.34C477.06 259.76 478.83 260.46 478.83 261.88L478.83 262.23C477.77 269.66 476.7 277.43 475.64 285.21C475.64 285.56 475.64 286.27 475.64 287.33C475.64 289.1 475.64 290.51 473.52 291.22C473.52 291.46 473.64 291.81 473.88 292.28C476.35 292.28 476.7 293.34 476.7 294.76C476.7 295.11 476.7 295.46 476.7 295.82C476.7 304.3 477.06 312.43 477.41 320.92C476.7 329.4 476.35 338.24 476.7 346.73C476.35 347.43 476.35 348.49 476.35 349.2C476.7 351.32 476.7 353.44 477.06 355.56C477.41 357.33 477.77 358.39 477.77 359.1C478.12 364.75 478.47 370.76 478.83 375.36C479.53 378.19 479.89 381.37 480.59 384.2C480.59 384.91 480.95 385.97 480.95 386.32C481.3 387.38 480.59 388.79 479.18 389.5C479.18 389.74 479.18 389.97 479.18 390.21C479.18 390.56 479.18 390.92 479.18 391.27C479.53 392.33 479.53 393.04 479.53 393.39C479.53 396.22 478.83 396.93 475.64 398.69C474.58 399.4 473.52 400.46 473.17 401.52C472.46 402.94 472.11 403.64 470.34 403.64C466.45 404.35 462.92 405.41 459.03 405.41C458.67 405.41 457.97 405.41 457.61 405.41C451.6 405.41 448.78 402.94 446.3 396.57C443.12 387.03 440.64 377.84 439.94 367.94C438.88 359.8 438.17 351.67 437.11 343.19C436.4 334.7 436.05 325.51 436.05 316.67C436.05 307.48 436.4 298.29 437.46 289.1C437.11 287.33 437.46 285.21 437.11 283.09C437.11 280.26 436.76 277.79 439.58 276.02C439.94 275.31 440.29 274.25 440.29 273.54C439.94 272.48 439.94 271.78 439.94 271.07C439.58 271.78 439.58 272.48 439.58 273.19C439.58 273.54 439.23 273.9 438.52 273.9C438.52 273.54 437.82 273.19 437.46 272.48C438.17 269.3 438.17 266.12 438.52 262.94C438.52 261.88 440.29 260.11 440.29 258.7C440.29 258.34 439.94 257.64 439.23 256.93C439.94 256.46 440.41 255.87 440.64 255.16C439.23 254.45 439.23 253.39 438.88 251.27C439.94 242.43 439.94 233.6 440.64 224.4C440.64 219.1 441.35 213.44 441.7 208.14C441.94 207.9 442.06 207.55 442.06 207.08C442.06 206.73 441.7 206.02 441.35 206.02C441.35 204.96 441.35 204.25 441.7 202.84C441.94 202.6 442.06 202.37 442.06 202.13C442.06 201.66 441.94 201.42 441.7 201.42C441.7 196.12 441.7 191.17 441.7 186.22C443.12 183.39 443.47 180.21 443.47 177.03C443.83 171.73 444.53 166.78 444.89 161.47C444.89 157.94 444.89 154.05 445.24 150.16C445.24 144.51 445.59 138.14 446.3 132.48C447.01 126.12 447.01 120.11 447.72 114.46C448.07 110.21 448.78 105.62 451.6 103.5C454.08 100.31 458.67 99.61 462.21 97.49C462.21 97.49 462.33 97.49 462.56 97.49C463.27 97.49 464.68 97.84 465.74 98.55C468.93 99.61 471.75 100.67 474.94 100.67C479.89 101.73 482.71 105.97 486.25 108.8C486.25 109.15 486.6 110.21 486.6 111.27C486.6 111.63 486.6 112.33 486.25 113.04ZM459.73 276.72C459.73 276.37 459.73 275.66 459.38 275.66C459.03 273.9 456.2 273.19 454.78 273.19C454.43 273.19 453.72 273.19 453.72 273.54C453.37 273.9 452.66 274.25 452.31 274.6C451.6 273.9 451.25 273.19 451.25 272.48L451.25 272.13C451.6 271.42 451.6 270.72 451.6 270.01C451.6 269.77 451.49 269.54 451.25 269.3C451.96 268.95 452.66 267.89 454.08 267.53C454.43 267.53 454.43 267.18 454.78 266.47C457.26 265.77 460.09 263.65 462.21 262.58C463.27 262.23 463.62 262.23 463.98 261.88C463.62 261.52 463.27 260.82 462.92 260.46C460.79 258.7 459.38 257.64 458.32 255.87L458.32 255.51C458.32 254.81 459.38 253.39 460.09 252.69C460.09 252.33 460.09 251.62 460.44 251.27C460.68 250.8 461.15 250.45 461.86 250.21C461.86 249.86 461.15 249.5 460.09 249.5C459.38 249.5 458.67 248.8 458.67 248.09C458.67 247.74 459.03 247.74 459.38 247.38C460.44 247.03 460.79 246.68 460.79 246.32C460.79 245.61 459.73 245.26 459.03 244.55C458.32 244.2 457.97 244.2 457.97 243.85C458.2 243.61 458.56 243.38 459.03 243.14C459.73 242.43 460.09 240.66 460.09 239.6C460.09 238.54 459.73 237.48 458.67 236.42C458.44 236.42 458.2 236.42 457.97 236.42C457.61 236.42 456.91 236.42 456.55 236.42C455.85 237.48 455.49 238.19 455.49 238.9C454.43 240.66 453.02 241.73 451.6 241.73C450.19 241.73 448.42 240.66 447.72 238.9C447.01 238.54 446.65 238.54 446.3 238.19C445.59 238.54 445.24 238.9 445.24 239.6C445.59 243.14 444.89 246.32 444.89 249.5C444.89 250.56 444.89 251.27 445.24 252.69C445.48 252.92 445.71 253.04 445.95 253.04C445.95 253.39 445.24 253.39 445.24 253.75C444.89 255.51 443.83 257.28 443.83 258.7C443.83 259.76 443.83 260.46 443.83 261.52C444.18 262.94 444.18 265.41 444.18 266.83C444.53 268.59 444.53 270.01 444.18 271.42C443.83 273.19 443.83 274.96 443.83 276.37C443.83 278.14 444.18 279.55 444.89 281.67C444.89 282.38 444.53 284.15 444.53 285.21C444.18 288.39 444.18 291.22 443.83 294.05C443.83 295.11 444.53 296.52 444.53 297.58C444.53 298.64 444.18 299.71 442.77 300.06L442.77 301.12C443.12 301.47 443.12 302.18 443.12 302.53C443.47 304.3 442.06 305.72 442.06 307.48C442.06 308.54 442.77 309.6 443.83 310.66C442.88 312.08 442.41 313.14 442.41 313.85C443.12 314.55 444.18 315.61 445.59 316.32C444.89 317.03 443.83 317.73 443.12 318.8C443.12 319.15 443.83 320.21 444.18 320.21C444.53 320.56 444.89 321.62 444.89 321.98C444.89 322.33 444.53 322.33 443.83 323.04C443.47 323.39 443.47 324.45 443.47 325.51C443.83 330.46 443.83 335.06 443.83 339.65C444.18 340.72 444.89 342.48 444.89 343.54C444.89 343.78 444.77 343.9 444.53 343.9C443.83 344.96 443.83 345.66 443.83 346.37C443.83 347.43 444.18 348.14 444.53 348.85C444.89 351.67 444.89 354.5 444.89 356.98C445.24 359.8 447.36 361.93 449.48 361.93C450.19 361.93 451.25 361.57 451.6 361.57C453.37 360.51 455.49 359.45 457.26 358.74C457.97 358.39 458.32 357.68 458.67 356.98C458.91 356.74 459.03 356.51 459.03 356.27C458.67 355.56 457.97 355.21 457.61 355.21C456.91 355.21 456.2 355.92 455.49 356.27C454.43 356.27 454.43 356.27 453.37 356.27C453.37 355.92 453.02 355.56 453.02 355.21C452.78 355.21 452.55 355.21 452.31 355.21C451.96 355.21 451.6 355.21 451.25 355.21C450.19 355.21 449.13 355.21 448.07 355.21C448.07 354.97 448.07 354.62 448.07 354.15C448.07 353.44 448.07 352.73 448.07 352.03L449.13 351.32C449.84 351.32 450.19 352.03 451.25 352.03C451.6 352.03 452.66 353.09 453.37 353.09C453.84 353.09 454.31 352.74 454.78 352.03C454.78 351.67 454.43 351.32 454.43 350.61C454.43 347.79 455.49 346.02 457.61 344.96C458.32 344.96 458.32 343.54 458.32 342.84C457.61 342.84 457.26 342.84 456.55 343.19C456.32 343.19 455.96 343.31 455.49 343.54C454.43 343.19 452.66 342.84 451.25 342.13C451.96 341.42 452.31 340.36 452.31 339.65C453.02 339.3 453.72 339.3 453.72 338.59C453.72 338.24 453.72 337.53 453.02 337.18C452.66 337.18 452.31 336.83 452.31 336.47C452.31 336.12 452.66 336.12 453.02 335.77C454.43 333.29 454.08 329.76 457.61 329.76C458.67 329.76 459.38 328.69 459.73 327.28C459.73 326.93 458.67 326.22 457.61 325.87C456.55 325.16 455.49 325.16 454.43 324.81C453.72 324.1 453.37 324.1 453.37 323.74C453.61 323.27 453.96 323.04 454.43 323.04C454.78 323.39 455.49 323.39 455.85 323.39C457.97 323.39 457.97 321.27 457.61 319.86C457.61 319.5 457.61 319.15 457.61 318.8C456.2 317.03 455.49 316.67 454.43 316.67C453.72 316.67 453.02 317.03 451.6 318.09C451.6 318.56 451.49 318.91 451.25 319.15C451.25 318.91 451.25 318.56 451.25 318.09C451.25 315.97 452.31 314.2 454.78 313.85C457.26 313.85 458.32 312.79 458.32 311.02C458.32 310.66 458.32 310.31 457.97 309.6C457.61 308.54 457.61 307.48 457.61 306.78C457.61 306.3 457.61 305.72 457.61 305.01C456.91 305.36 456.55 305.36 456.2 305.36C454.78 305.36 454.43 304.3 454.08 302.53C454.08 301.12 453.72 298.64 455.85 297.94C456.91 296.88 457.61 294.76 457.61 293.34C457.97 293.34 457.97 292.28 457.97 291.57C457.97 289.45 457.61 286.98 457.61 286.62C455.49 285.21 454.78 283.8 454.43 282.74C454.43 281.67 455.49 280.97 457.97 279.55C459.38 278.85 459.73 277.79 459.73 276.72ZM459.03 298.64L459.38 297.94C458.32 297.94 457.61 297.94 456.55 297.94C457.26 297.94 457.97 297.94 459.03 298.64ZM445.95 201.07C445.95 202.13 445.95 202.48 446.3 203.19C446.3 204.25 446.3 204.96 446.65 205.67C447.01 205.31 448.07 204.96 448.42 204.25C449.13 203.54 449.84 203.19 450.9 203.19C451.25 203.19 451.25 203.19 451.6 203.54C452.66 204.25 453.72 204.96 454.43 205.31C454.43 204.6 455.14 203.54 455.14 202.84C455.14 202.6 455.02 202.48 454.78 202.48C454.08 201.07 451.96 200.36 451.25 200.01C450.54 199.3 449.48 199.3 448.78 199.3C449.48 199.3 450.54 198.95 451.25 198.24C451.25 197.89 451.25 196.83 451.6 196.47C451.6 196.12 451.25 195.77 451.25 195.41C451.25 192.94 451.6 190.82 453.72 189.76C452.31 190.11 451.25 190.82 449.13 190.82C448.07 190.82 447.72 191.17 447.72 191.53C447.72 191.88 448.07 192.59 448.07 192.94C448.07 193.65 449.48 194.71 449.48 195.41C449.48 195.77 449.13 196.12 448.78 196.12C446.3 197.18 445.59 199.3 445.95 201.07ZM454.43 190.11C454.67 190.58 454.9 190.82 455.14 190.82C454.78 190.11 454.43 190.11 454.43 189.76C454.43 189.99 454.43 190.11 454.43 190.11ZM454.43 189.76C454.43 189.76 454.43 189.76 454.43 189.76ZM445.95 234.3C445.95 234.66 446.3 236.07 446.65 236.42C447.72 236.42 448.42 236.07 449.13 235.36C450.54 235.01 451.25 234.3 451.96 233.6C455.14 231.83 459.03 230.41 462.21 229C462.92 228.65 463.27 228.29 463.27 227.94C463.03 227.94 462.68 227.82 462.21 227.59C460.79 226.88 460.09 224.76 460.09 222.99C459.73 221.57 460.44 219.81 461.15 219.1C462.21 218.39 462.92 217.33 462.56 216.27C462.56 215.21 461.86 214.15 460.79 213.09C460.56 212.62 460.44 212.27 460.44 212.03C460.09 211.32 460.09 210.61 460.79 209.91C460.79 209.2 460.79 208.85 461.15 208.49C460.79 208.49 460.09 208.14 459.38 208.14C457.61 208.49 457.26 209.55 457.26 211.32C457.5 211.56 457.61 211.79 457.61 212.03C457.61 218.04 457.26 219.45 452.66 220.51C451.96 220.87 451.6 221.22 451.25 221.22C450.9 221.22 450.54 220.87 450.54 220.16C450.54 219.81 450.9 219.81 450.9 219.1C451.25 218.39 451.25 218.04 451.25 217.33C450.9 215.92 450.54 214.86 450.54 213.44C450.54 212.03 447.72 209.91 447.01 209.91L446.65 209.91C446.3 210.26 446.3 211.68 446.3 212.38C446.3 213.8 446.65 215.21 447.01 215.21C447.72 215.56 448.42 216.63 448.42 217.33C448.42 218.04 448.07 218.39 447.36 219.1C446.65 219.45 445.95 220.16 445.95 221.22C445.95 221.57 445.95 221.57 446.65 221.93C446.65 222.64 448.07 223.34 448.78 223.34C449.84 223.34 451.25 222.64 451.6 222.28C452.31 222.28 452.66 221.93 453.37 221.93C455.14 221.93 456.2 223.34 456.2 224.76C456.2 225.46 456.2 225.82 455.85 226.52C456.2 227.23 455.49 227.59 455.49 228.29C455.14 230.06 454.43 231.12 453.37 231.12C453.02 231.12 453.02 230.77 452.66 230.77C451.96 230.41 451.96 227.94 451.96 227.23C451.96 227 451.96 226.76 451.96 226.52C451.96 226.29 451.84 226.17 451.6 226.17C451.6 225.93 451.49 225.82 451.25 225.82C449.84 225.82 446.3 228.29 445.95 229.35C445.95 231.12 445.95 232.53 445.95 234.3ZM460.79 368.29C459.73 367.94 459.38 367.58 458.67 367.23C457.61 367.23 457.26 366.88 455.85 366.88C455.85 366.52 455.85 366.52 455.49 366.52C455.49 365.82 455.49 365.11 455.49 364.75C455.49 363.34 455.49 362.63 457.61 362.63C458.32 362.63 458.32 362.28 458.67 361.57C458.32 361.57 457.97 361.57 457.61 361.57C455.49 361.57 453.72 362.99 451.6 362.99C451.6 362.99 451.49 362.99 451.25 362.99C450.9 362.63 450.19 362.63 449.48 362.63C447.36 362.63 446.65 364.05 447.01 366.17C447.01 366.52 447.01 366.88 447.01 367.23C447.01 367.23 447.01 367.46 447.01 367.94C446.65 369.35 446.3 370.06 446.3 370.76C446.65 372.53 447.72 373.59 451.25 374.3L454.43 374.3C455.14 374.3 455.49 373.59 456.2 373.59C456.2 373.24 456.2 373.24 455.85 373.24C455.49 373.59 455.14 373.59 454.43 374.3L451.25 374.3C451.25 373.83 451.01 373.59 450.54 373.59C449.84 372.89 448.78 372.18 448.78 371.12C448.42 371.12 448.42 370.76 448.78 370.41C449.13 368.29 449.84 366.88 450.9 365.46C450.9 365.11 451.6 364.75 451.96 364.75C452.31 364.75 452.66 364.75 452.66 365.11C454.08 365.11 454.43 366.17 455.49 366.52C455.49 366.88 455.49 366.88 455.85 366.88C456.2 367.58 456.2 368.29 456.91 369.35C457.26 370.41 457.97 370.76 459.38 371.12C459.38 370.41 460.09 369.35 460.79 368.29ZM451.25 380.66C450.19 379.25 449.13 378.19 449.13 377.48C449.13 377.13 449.13 376.78 449.13 376.07C448.89 375.36 448.54 375.01 448.07 375.01C447.83 375.01 447.48 375.24 447.01 375.71C448.07 378.19 449.13 379.96 449.84 381.02C450.9 381.37 451.25 381.37 451.6 381.37C451.37 381.14 451.25 380.9 451.25 380.66ZM448.07 162.53L448.07 162.89C448.07 163.59 448.78 163.95 448.78 164.3C449.13 163.95 449.48 163.59 449.48 162.89C449.84 162.89 449.84 162.53 449.84 162.18C449.84 161.83 449.48 161.47 449.48 161.12C449.48 160.77 449.13 159.71 449.13 158.65C448.78 159.71 448.78 160.77 448.78 161.12C448.42 161.47 448.07 162.18 448.07 162.53ZM449.13 151.22C449.13 151.46 449.25 151.58 449.48 151.58L449.84 151.58C449.84 150.87 449.84 150.87 449.84 150.52C449.6 150.52 449.48 150.63 449.48 150.87C449.25 150.87 449.13 150.99 449.13 151.22ZM451.6 185.87C451.37 186.1 451.01 186.22 450.54 186.22C451.01 186.46 451.37 186.69 451.6 186.93C452.07 186.69 452.43 186.58 452.66 186.58C452.31 186.22 451.6 186.22 451.6 185.87ZM453.37 389.5L453.02 389.15C452.66 389.5 452.66 389.5 451.96 389.85C452.66 389.85 452.66 390.21 453.02 390.21C453.25 389.97 453.37 389.74 453.37 389.5ZM454.43 165.01C454.43 165.36 454.43 166.07 455.49 166.78C455.85 167.48 456.55 169.25 457.61 169.25C457.97 169.25 458.32 169.25 458.67 168.9C459.15 168.43 459.73 167.6 460.44 166.42C459.03 165.36 457.61 164.66 456.2 164.3C455.49 164.66 454.43 164.66 454.43 165.01ZM455.49 269.3C454.79 269.54 454.43 269.77 454.43 270.01C454.43 270.36 455.14 271.42 455.49 272.13C456.2 271.42 457.26 270.72 457.26 270.36C456.55 270.01 456.2 269.3 455.49 269.3ZM459.38 336.83C459.38 336.83 458.91 336.83 457.97 336.83C457.97 336.83 457.97 337.42 457.97 338.59C456.91 339.3 455.85 339.3 455.14 339.65C455.37 339.89 455.49 340.13 455.49 340.36C456.2 339.65 456.91 339.3 457.97 338.59C459.03 337.89 459.38 337.18 459.38 336.83ZM459.38 282.74C458.32 282.38 457.61 282.38 457.26 282.38C456.91 282.38 456.2 282.74 455.85 283.44C456.55 283.8 457.26 284.15 457.61 284.15C458.32 284.15 458.67 283.8 459.38 282.74ZM457.61 157.94C456.91 157.94 456.43 158.06 456.2 158.29C456.91 158.29 456.91 158.65 457.26 159C457.61 159 457.97 159.71 459.03 159.71C459.26 159.24 459.5 159 459.73 159C459.38 158.29 458.32 157.94 457.97 157.94L457.61 157.94ZM456.2 162.53L456.55 162.89C456.91 163.24 456.91 163.24 457.26 163.24C457.61 163.24 457.61 162.89 457.97 162.89C457.73 162.65 457.5 162.3 457.26 161.83C456.55 161.83 456.55 162.53 456.2 162.53ZM460.44 377.13C459.38 376.42 458.32 376.07 457.61 376.07C457.14 376.3 456.79 376.66 456.55 377.13C456.55 377.48 456.91 377.48 456.91 377.84C457.61 377.84 458.32 377.84 459.38 377.84C459.38 377.48 459.73 377.48 460.44 377.13ZM458.67 202.84C458.67 203.54 458.32 204.25 457.61 205.31C457.61 205.67 458.67 206.37 459.38 207.43C459.73 206.37 460.44 205.67 460.44 205.31C460.44 203.54 460.44 202.48 459.38 200.72C459.38 200.36 458.32 200.01 457.97 199.3C457.73 199.54 457.61 199.89 457.61 200.36L457.61 200.72C458.32 201.78 458.67 202.48 458.67 202.84ZM457.97 348.14L457.61 348.14C457.61 348.49 457.61 349.2 457.61 349.91C457.61 349.91 457.61 350.02 457.61 350.26C457.61 349.2 457.61 348.49 457.97 348.14ZM460.79 195.41C460.32 195.18 459.97 194.82 459.73 194.35C459.38 195.06 459.03 195.41 458.32 196.12C459.03 196.12 459.38 196.24 459.38 196.47C460.09 196.12 460.09 196.12 460.79 195.41ZM459.38 186.58C459.38 186.34 459.38 186.22 459.38 186.22C459.03 186.22 459.03 186.22 458.67 186.58C459.03 186.58 459.03 186.58 459.03 186.93C459.26 186.69 459.38 186.58 459.38 186.58ZM459.38 381.37C459.15 381.37 459.03 381.61 459.03 382.08L459.38 382.08L459.38 381.37ZM461.15 319.15C460.91 318.91 460.68 318.56 460.44 318.09C460.09 318.8 459.73 319.15 459.73 319.5C460.09 320.21 460.44 320.21 460.79 320.56C461.15 320.21 460.79 319.5 461.15 319.15ZM460.79 346.37C460.79 346.37 460.79 346.25 460.79 346.02C460.79 346.25 460.56 346.37 460.09 346.37L460.79 347.08C460.79 347.08 460.79 346.84 460.79 346.37ZM461.5 309.96C461.03 310.19 460.79 310.31 460.79 310.31C460.79 310.55 461.03 310.66 461.5 310.66L461.5 309.96ZM461.5 252.69C462.21 253.16 462.56 253.39 462.56 253.39L462.21 252.69C461.74 252.69 461.5 252.69 461.5 252.69ZM462.21 385.26L461.86 385.26C461.86 385.26 461.86 385.38 461.86 385.61C461.86 385.38 461.97 385.26 462.21 385.26ZM462.56 240.66C462.56 240.66 462.56 240.78 462.56 241.02C462.56 240.66 462.56 240.66 462.92 240.66C462.68 240.66 462.56 240.66 462.56 240.66ZM463.27 185.16C463.51 185.16 463.62 185.28 463.62 185.51C463.62 185.28 463.74 185.16 463.98 185.16L463.62 184.81L463.27 185.16ZM466.1 163.95C465.39 163.95 465.39 163.24 465.04 163.24C464.33 163.24 464.33 163.95 463.98 163.95C464.33 164.3 464.33 164.3 465.04 164.3C465.39 164.3 466.1 164.3 466.1 163.95ZM463.98 348.14C465.04 348.85 465.74 348.85 466.81 349.2L467.16 348.14C466.81 347.43 466.1 347.43 465.04 347.43C464.8 347.43 464.45 347.67 463.98 348.14ZM467.16 289.1C467.16 288.86 467.16 288.63 467.16 288.39C466.92 287.92 466.69 287.68 466.45 287.68C465.74 287.68 465.39 288.04 465.39 288.39C465.74 288.39 466.45 288.75 467.16 289.1ZM473.52 390.21C473.52 389.74 473.52 389.27 473.52 388.79C472.11 383.85 470.69 379.6 470.34 375.01C470.34 373.95 470.34 372.89 470.69 371.12C470.46 371.12 470.46 371 470.69 370.76C470.69 369.7 470.34 368.29 469.99 367.58C468.93 368.64 467.51 370.41 466.81 371.12C466.81 371.47 467.16 372.53 467.16 373.59C467.16 375.36 468.22 378.19 468.93 380.66C468.57 380.66 468.22 381.02 467.51 381.02C469.28 383.85 470.34 386.32 471.4 389.15C472.11 389.5 472.46 389.85 473.52 390.21ZM468.57 170.31C468.57 169.61 468.22 169.25 467.51 168.54C467.16 169.25 467.16 169.25 467.16 169.61C467.16 169.96 467.16 170.67 467.16 171.02C467.51 171.02 467.87 171.37 468.57 171.37C468.57 171.02 468.93 170.67 468.57 170.31ZM470.69 254.1C469.99 253.39 469.63 252.69 469.28 251.98C468.57 252.69 468.93 253.39 468.93 253.75C468.57 254.1 468.22 254.45 467.51 255.51C467.16 255.87 467.16 256.22 467.16 256.57C467.16 256.57 467.28 256.57 467.51 256.57C467.87 256.57 468.22 256.57 468.57 256.22C469.63 255.87 469.99 254.81 470.69 254.1ZM468.93 262.94C468.69 262.94 468.34 262.82 467.87 262.58C467.87 262.94 467.87 263.65 467.87 264C467.87 264.71 468.22 265.06 468.22 266.12C468.93 264.71 469.28 264 468.93 262.94ZM474.23 394.8L474.23 394.45C474.23 394.1 473.52 393.39 473.52 393.04C472.82 393.39 472.46 393.39 472.46 393.74C472.46 394.1 473.52 395.51 473.52 396.57C473.88 395.86 474.23 395.16 474.23 394.8ZM448.07 208.14C448.3 208.14 448.42 208.14 448.42 208.14L448.07 208.14ZM450.19 171.73C449.95 171.73 449.84 171.73 449.84 171.73C449.84 171.73 449.95 171.73 450.19 171.73ZM457.97 150.52L458.67 150.52L457.97 150.52ZM460.09 192.59L460.09 192.23L460.09 192.59ZM467.16 284.5L467.16 284.15L467.16 284.5C466.81 284.15 466.81 284.86 466.45 284.86C466.81 284.86 466.81 284.15 467.16 284.5Z" />
					<path id="&lt;Compound Path&gt;" fill-rule="evenodd" class="shp0" d="M500.74 295.82L500.74 295.46C500.74 293.7 505.33 288.75 505.33 285.92C505.33 285.57 505.33 285.21 504.98 284.86C504.63 284.15 504.27 283.09 504.27 282.38C504.27 280.62 504.98 278.85 505.33 277.08C506.4 272.13 507.46 266.83 508.52 261.52C508.87 260.82 509.22 260.11 509.93 260.11C514.88 259.4 512.76 254.45 514.17 251.98C514.17 251.98 514.17 251.86 514.17 251.63C514.17 251.27 514.17 250.92 513.82 250.57C512.76 249.51 512.41 248.44 512.41 247.74C512.41 245.97 513.47 244.56 513.82 243.14C517 235.36 523.01 229.71 529.37 225.11C535.74 220.16 542.46 215.92 550.24 213.45C551.3 213.09 552 213.09 553.06 213.09C560.13 213.09 566.5 218.75 567.2 225.82C567.2 227.23 567.56 228.65 567.91 230.06C567.91 230.77 568.26 231.47 568.26 231.83C568.26 236.07 568.26 240.67 567.56 244.56C567.2 249.15 565.44 253.39 564.73 257.64C564.38 258.34 564.38 259.4 564.38 260.11C564.38 261.52 564.73 262.94 564.73 264.35C564.38 266.12 564.38 267.53 564.02 269.3C563.32 270.72 561.55 272.48 561.55 273.9C561.55 274.25 561.55 274.25 561.55 274.61C561.55 279.55 558.37 282.03 555.18 284.86C554.12 285.92 552.71 287.69 551.65 289.45C549.17 295.11 545.28 298.64 539.27 300.77C536.45 301.83 534.68 303.59 534.68 306.78C534.68 308.9 534.68 311.37 534.68 313.49C534.68 316.68 535.03 320.21 536.45 323.39C537.15 324.1 537.15 325.51 537.15 326.93C537.15 327.64 537.15 328.34 537.15 329.05C537.15 331.52 536.09 334.7 536.09 337.18C536.09 337.89 536.09 338.95 536.45 339.65C538.21 344.96 538.92 350.61 543.52 354.5C544.22 355.21 545.28 355.92 545.64 356.27C548.82 359.1 550.94 360.87 553.06 360.87C554.83 360.87 557.3 359.45 560.49 357.33C563.32 351.32 599.73 308.9 605.03 308.9C605.39 308.9 605.74 309.25 605.74 309.96C605.74 312.43 597.25 324.45 586.65 341.42C586.65 346.37 585.23 350.97 580.99 354.5C573.21 364.05 572.15 367.94 565.79 370.41C564.02 371.47 559.78 373.24 557.66 373.24C556.95 373.24 556.6 373.24 555.89 373.24C551.65 373.24 548.47 370.06 544.22 370.77C542.81 371.12 542.1 371.12 541.04 371.12C537.86 371.12 534.68 370.06 531.85 368.64C526.9 366.52 522.66 363.34 518.42 360.51C508.87 353.09 506.04 342.84 504.63 331.88C504.63 331.17 504.63 330.46 504.98 330.11C504.98 330.46 504.98 331.17 505.33 331.52C505.69 332.23 506.04 332.58 506.4 333.29C506.75 332.58 507.1 331.88 507.1 330.82C506.75 327.99 504.63 325.87 503.92 323.75L500.74 295.82ZM506.75 279.55C507.1 278.49 507.46 277.79 507.81 277.08C507.81 276.73 507.46 276.37 507.46 276.02C507.1 276.37 506.75 277.43 506.4 278.14C506.4 278.49 506.75 278.85 506.75 279.55ZM508.52 271.42C508.58 270.99 508.64 270.55 508.71 270.11C508.53 270.54 508.35 270.98 508.16 271.42C508.16 271.78 508.16 272.48 508.16 272.84C508.16 272.48 508.52 272.13 508.52 271.42ZM510.64 264C510.64 263.65 510.28 263.65 510.28 263.29C510.28 263.53 510.17 263.65 509.93 263.65C509.35 265.97 509.01 268.06 508.71 270.11C509.48 268.16 510.06 266.32 510.64 264ZM509.93 327.99C510.28 327.28 510.28 326.57 510.64 325.87C510.64 325.51 510.28 325.16 509.93 324.81C509.93 325.87 509.58 326.57 509.22 327.28C509.22 327.64 509.58 327.64 509.93 327.99ZM510.64 339.65C510.64 339.89 510.52 340.13 510.28 340.36C510.28 340.6 510.52 340.83 510.99 341.07C511.35 341.07 511.35 340.72 511.35 340.36C510.99 340.01 510.99 340.01 510.64 339.65ZM511.35 289.1L511.7 289.1C511.7 288.39 511.7 288.04 511.7 287.33C512.41 288.04 512.76 289.1 513.47 289.1C513.82 289.1 514.53 288.75 515.23 288.04C515.23 287.69 515.23 287.69 515.23 287.33C515.23 286.63 514.88 285.92 514.53 285.57C514.29 285.57 513.94 285.45 513.47 285.21C512.41 285.21 511.7 285.92 511.7 287.33C511.7 288.04 511.35 288.75 511.35 289.1ZM515.23 278.85C515.23 278.49 514.53 278.14 514.17 277.79C513.82 278.49 513.47 279.55 513.47 279.91C513.47 280.26 513.82 280.62 514.53 280.97C514.88 279.91 515.23 279.55 515.23 278.85ZM514.53 292.28C514.53 292.28 514.41 292.28 514.17 292.28C514.41 292.28 514.53 292.4 514.53 292.64C514.53 292.4 514.53 292.28 514.53 292.28ZM514.17 292.28C514.17 292.28 514.17 292.28 514.17 292.28ZM514.53 292.64C514.53 292.64 514.53 292.64 514.53 292.64ZM516.29 274.25C516.65 273.19 517.36 272.48 517.36 271.42C517.36 270.36 516.65 269.66 516.29 268.59C515.94 269.66 515.23 270.36 514.53 271.78C515.23 272.84 515.94 273.54 516.29 274.25ZM519.83 325.87C519.83 325.51 518.77 324.45 518.06 324.45L517.71 324.45C517 324.45 516.65 325.51 515.59 326.22C516.29 326.93 516.65 327.28 517.71 328.34C518.77 327.28 519.48 326.93 519.83 325.87ZM519.48 317.74C519.12 317.74 518.77 317.74 518.42 317.38C518.42 317.74 518.77 318.44 518.77 319.15C517.36 319.86 515.94 319.86 515.94 321.27C515.94 321.27 515.94 321.39 515.94 321.63C516.29 322.33 517 323.04 517.36 323.04C518.77 322.69 519.12 321.98 519.12 320.92C519.12 320.56 518.77 319.86 518.77 319.15C519.12 318.44 519.12 318.09 519.48 317.74ZM516.65 330.46C516.65 330.46 516.65 330.58 516.65 330.82C516.65 331.05 516.65 331.17 516.65 331.17C517 331.17 517 330.82 517 330.46L516.65 330.46ZM519.83 344.96C520.3 344.72 520.65 344.37 520.89 343.9C521.24 343.19 521.95 342.48 522.66 341.78C522.66 341.07 522.66 340.36 522.66 340.01C521.6 340.01 520.18 340.01 519.83 340.01C519.16 341.01 518.81 342.33 518.47 343.36C518.81 344.33 519.16 344.96 519.83 344.96ZM518.47 343.36C518.46 343.31 518.44 343.25 518.42 343.19C518.42 343.19 518.42 343.31 518.42 343.54C518.44 343.48 518.46 343.42 518.47 343.36ZM526.19 350.61C525.84 349.91 525.49 349.2 525.13 348.49C524.78 348.49 524.07 348.85 524.07 349.2C524.07 349.55 524.42 350.61 524.78 352.38C525.49 351.32 526.19 350.97 526.19 350.61ZM552.36 228.65C552 227.94 551.3 227.23 550.59 226.52C549.88 227.59 548.47 228.65 548.47 229.71C548.47 230.06 548.47 230.77 548.47 231.12C548.47 235.01 547.05 238.19 545.28 241.73C544.22 243.85 543.52 245.26 543.52 247.38C543.52 247.74 543.52 248.44 543.87 249.15C543.87 249.86 543.87 250.21 543.87 250.92C543.87 252.33 543.52 253.75 542.81 254.81C542.1 257.28 539.98 258.7 538.57 260.46C538.21 261.17 537.51 261.88 537.51 262.23L537.51 262.58C538.57 264.35 538.92 266.83 538.92 268.95C538.92 270.01 538.92 271.78 538.57 273.19C538.57 273.54 538.92 274.61 538.92 275.31C539.63 274.61 540.69 274.61 541.04 273.9C542.46 272.48 544.22 270.72 545.28 268.95C551.65 259.76 553.06 249.15 553.42 237.84C553.06 235.01 552.71 231.83 552.36 228.65ZM564.73 367.94C564.73 367.7 564.73 367.58 564.73 367.58C564.49 367.58 564.38 367.7 564.38 367.94C564.61 367.94 564.73 367.94 564.73 367.94Z" />
					<path id="&lt;Compound Path&gt;" class="shp0" d="M602.55 344.25C602.2 339.65 602.2 334 601.84 329.05C601.49 325.51 601.14 321.98 600.78 318.09C600.43 309.25 600.08 300.77 600.08 291.57C600.08 287.69 600.43 284.15 600.43 280.62C601.14 265.06 601.49 249.51 602.2 234.3C602.2 225.82 603.61 218.04 607.5 210.26C609.27 207.79 609.97 204.25 614.22 204.25C614.57 204.25 615.28 203.55 615.63 203.19C620.93 197.89 625.18 198.6 629.77 204.61C631.19 206.37 632.6 207.79 634.37 209.56C636.49 212.74 637.55 216.27 636.14 220.87C635.78 221.93 636.14 223.7 636.49 225.11C637.2 225.46 639.32 225.46 640.38 225.11C650.63 219.45 661.59 214.51 671.49 208.85C676.09 206.73 679.27 204.61 683.86 203.9C686.34 203.55 688.11 204.61 688.81 206.37C689.17 207.43 687.75 209.91 686.34 210.62C678.91 215.92 671.13 220.51 663.36 225.82C657 230.06 649.92 234.3 643.56 239.61C639.67 243.14 636.49 247.74 634.02 252.69C631.54 256.22 630.83 260.46 633.31 264.35C636.49 268.95 632.6 272.13 630.83 274.96C629.42 278.49 629.06 281.68 631.54 284.5C632.6 285.57 632.6 287.33 632.6 288.75C631.89 295.46 633.31 301.83 635.78 308.54C636.84 311.73 636.49 317.03 634.72 319.5C633.66 320.92 633.31 323.04 634.37 324.1C636.14 327.28 636.49 330.46 636.49 333.64C636.49 335.06 636.49 336.83 636.84 337.53C640.38 341.42 639.67 346.37 641.08 350.97C641.79 354.15 642.85 357.33 643.91 360.87C646.04 365.46 644.98 366.17 641.08 368.64C634.37 373.24 628.71 368.64 622.7 367.58C619.87 367.23 616.34 367.23 614.22 365.46C609.97 364.05 605.73 363.34 603.97 357.69C603.61 354.5 602.91 351.68 602.2 348.85C602.2 348.49 602.55 348.49 602.91 348.49C602.91 347.08 602.55 345.66 602.55 344.25Z" />
					<path id="&lt;Compound Path&gt;" fill-rule="evenodd" class="shp0" d="M734.77 273.19C736.89 272.84 739.36 269.3 739.01 266.83C738.78 266.59 738.66 266.36 738.66 266.12C738.42 266.36 738.19 266.47 737.95 266.47C737.95 266.71 737.95 266.83 737.95 266.83C736.89 268.24 735.83 269.66 734.77 270.72C732.29 268.59 735.83 268.24 735.83 266.83C737.24 256.22 741.84 246.68 745.73 237.13C749.62 228.65 754.21 220.51 759.16 212.74C760.93 209.91 765.17 207.79 768.71 206.37C771.18 205.67 773.66 204.61 776.84 203.9C783.56 202.84 789.56 205.31 795.22 207.08C797.7 207.79 799.46 212.03 800.88 214.86C801.58 215.92 800.52 218.75 799.82 220.51C799.46 221.93 798.76 223.34 798.76 225.11C798.76 232.89 795.93 240.31 793.81 247.74C793.1 250.57 793.45 253.39 793.1 256.22C792.75 259.05 792.75 261.52 792.39 264.35C792.04 266.83 791.33 268.95 791.33 271.07C791.33 276.02 792.04 280.62 791.69 285.57C791.69 288.39 790.27 290.87 789.56 293.34C788.15 296.52 787.09 299.35 788.5 302.89C788.86 304.66 788.86 306.42 788.15 308.19C786.74 311.73 786.38 315.26 787.44 318.8C789.21 323.04 786.38 326.93 786.38 330.46C786.74 337.53 786.74 344.25 786.74 351.32C786.74 353.09 787.44 355.21 787.44 356.98C787.8 359.45 788.86 359.1 790.27 358.39C795.58 354.15 800.52 350.26 805.83 346.37C806.89 346.02 808.3 346.02 809.36 345.66C809.72 347.08 810.78 349.2 810.07 350.26C808.66 352.74 806.54 355.21 804.41 356.98C802.29 359.45 800.17 362.28 800.17 365.82C800.17 367.58 799.11 369.7 798.05 370.41C790.98 374.65 783.56 379.25 774.37 375.71C771.18 374.65 767.29 374.65 763.76 374.65C758.81 374.3 754.57 372.89 751.38 369C749.97 367.58 748.2 365.46 747.85 363.34C745.37 351.32 743.96 339.3 745.73 326.93C746.43 322.33 745.02 317.74 747.14 313.49C747.14 313.14 746.79 312.79 746.79 312.43C746.43 312.79 745.73 313.14 745.37 313.49C743.25 316.68 741.49 320.56 738.66 323.39C735.48 327.28 731.59 330.82 727.7 334.35C722.4 339.65 715.68 342.48 708.61 343.54C707.55 343.9 706.84 344.96 705.43 345.31C704.36 346.02 703.3 346.37 702.24 346.37C695.53 345.31 688.81 344.6 682.09 343.19C675.37 341.42 671.84 337.53 671.84 330.82C671.84 323.75 669.37 316.32 670.43 308.54C671.13 305.01 671.84 301.12 671.84 297.23C673.96 284.86 675.73 272.13 677.85 259.4C678.2 254.81 678.91 250.21 679.62 245.26C681.03 235.72 684.92 227.59 689.52 219.1C691.99 214.86 696.59 213.45 700.83 213.8C707.55 214.15 713.91 215.92 718.5 222.28C720.98 226.17 720.98 229.35 719.57 232.89C718.5 235.01 718.15 237.48 718.5 239.96C718.86 242.43 717.44 244.91 716.74 247.74C716.03 250.92 714.62 254.1 713.91 257.28C713.2 263.29 709.67 268.24 711.79 274.61C713.2 277.43 710.73 281.68 710.02 285.21C710.02 286.27 709.31 287.69 709.67 288.75C711.08 294.4 710.37 299.71 709.67 305.36C708.96 308.19 707.9 310.31 710.73 312.08C711.44 312.43 711.08 314.55 710.73 315.61C710.73 317.03 710.02 318.09 709.67 319.5C709.67 319.86 710.02 320.92 710.02 321.27C710.73 320.92 711.79 320.92 712.14 320.21C715.68 315.26 719.57 310.67 722.75 305.01C724.87 301.83 726.99 297.94 725.93 292.64C725.22 287.69 727.34 283.09 732.29 280.26L731.94 280.26C732.29 279.55 732.29 278.49 732.65 277.43L733 277.79C731.59 275.67 731.94 273.9 734.77 273.19ZM681.03 317.03C681.03 316.68 680.68 316.32 680.33 316.32C679.97 315.97 679.62 316.32 678.91 316.68C679.26 317.03 679.62 317.74 680.33 317.74C680.68 317.74 681.39 317.38 681.03 317.03ZM679.97 324.45L680.33 324.45L679.97 324.1L679.97 324.45ZM681.39 291.22C681.39 291.46 681.39 291.69 681.39 291.93C681.62 292.16 681.86 292.16 682.09 291.93C682.09 291.69 682.21 291.57 682.45 291.57C682.09 291.22 681.74 291.22 681.39 291.22ZM690.93 295.82C690.93 296.05 690.93 296.64 690.93 296.88C690.93 296.64 691.05 296.41 691.29 296.17C690.93 296.17 690.93 296.17 690.93 295.82ZM742.9 254.45C742.9 254.69 742.78 254.81 742.55 254.81C742.63 254.81 742.72 254.81 742.9 254.81L742.9 254.45ZM742.19 254.81C742.55 255.16 742.55 255.16 742.55 255.51C742.55 255.16 742.55 255.16 742.55 254.81C742.46 254.81 742.37 254.81 742.19 254.81ZM745.73 307.13C746.79 305.36 747.85 303.95 748.2 302.18C748.55 301.83 747.85 301.12 747.14 300.41C746.08 301.47 745.02 302.18 744.31 303.24C745.02 305.01 745.02 306.07 745.73 307.13ZM745.73 249.51L745.37 249.15C745.14 249.15 745.02 249.27 745.02 249.51C745.02 249.86 745.02 249.86 745.37 250.21C745.37 249.86 745.73 249.86 745.73 249.51ZM745.37 272.84L745.02 272.84C745.02 273.07 745.02 273.19 745.02 273.19L745.37 273.19L745.37 272.84ZM750.32 273.19C749.26 274.25 747.85 275.31 747.85 276.37C747.49 277.43 748.55 279.2 748.91 280.26C749.97 279.2 750.68 277.79 751.38 276.37C751.03 275.31 750.68 274.25 750.32 273.19ZM750.68 259.76C751.03 259.05 751.38 258.34 751.38 257.64C751.38 257.28 750.68 256.57 750.32 255.87C749.97 256.57 749.26 257.28 748.91 257.99C749.62 258.7 749.97 259.4 750.68 259.76ZM754.21 297.94C754.21 298.64 753.86 299 753.51 299.71C753.15 301.12 752.8 302.18 752.8 303.59C752.45 306.42 753.51 309.6 750.32 311.37C750.32 312.08 750.44 312.43 750.68 312.43C751.38 312.79 752.45 312.79 753.51 312.43C753.86 312.43 754.21 311.37 754.21 310.67C754.57 307.13 754.57 303.59 754.57 299C754.57 298.76 754.45 298.41 754.21 297.94ZM750.68 331.17C751.03 330.82 751.38 330.46 751.74 330.46C751.38 330.11 751.38 330.11 751.03 329.76C751.03 330.46 751.03 330.46 750.68 331.17ZM751.74 251.98L751.38 251.98C751.38 251.98 751.38 252.1 751.38 252.33C751.38 252.33 751.5 252.45 751.74 252.69C751.74 252.45 751.74 252.21 751.74 251.98ZM752.45 315.26L752.45 315.61C753.15 315.61 753.86 315.97 754.57 315.97C753.86 315.61 753.15 315.61 752.45 315.26ZM770.83 310.67C769.77 309.96 768.35 309.6 767.29 308.9C768 307.84 768.71 306.42 770.12 305.01C770.47 304.66 771.18 304.3 771.89 303.59C772.6 303.24 772.95 302.89 773.3 302.18C769.41 300.41 772.6 296.88 771.18 294.05C770.47 292.28 770.47 290.51 773.3 289.81C775.07 289.45 775.07 288.39 774.37 286.63C773.3 283.09 771.18 279.55 771.54 276.37C771.89 272.84 774.01 269.3 773.66 265.06C773.66 263.65 774.01 261.52 774.01 260.11C774.72 255.87 771.54 256.93 769.77 256.93C767.29 256.93 765.88 259.05 766.59 261.52C766.59 262.23 766.59 263.29 766.23 263.65C765.53 266.47 764.47 268.95 764.11 271.42C763.76 273.19 763.76 274.61 765.88 275.31C767.29 276.02 768 277.43 766.23 277.79C760.93 278.85 764.11 279.91 765.88 281.32C769.06 284.15 769.06 284.15 766.23 287.69C765.53 288.75 764.47 289.81 764.82 290.51C765.53 292.28 764.82 292.28 763.76 292.64C760.93 292.99 761.28 294.4 763.41 295.46C766.23 297.23 766.23 301.12 764.82 302.18C762.34 305.36 761.28 308.54 760.93 312.08C760.22 316.32 758.81 320.21 758.1 324.1C758.1 324.45 759.51 325.87 760.22 326.57C760.58 327.28 761.28 327.64 759.87 328.7C756.69 330.82 757.39 339.65 760.22 342.48C760.93 343.19 760.93 343.9 760.93 344.96C760.93 346.73 756.69 348.85 760.93 350.97C758.81 354.15 758.45 356.98 763.05 358.75L763.05 359.1C763.05 362.28 765.53 361.57 767.29 361.22C767.65 361.22 768.71 359.1 768.71 358.04C768.71 355.92 768.35 354.15 768 352.74C767.29 350.97 768 349.91 768.71 348.49C770.12 345.31 770.47 341.42 770.47 337.89C770.47 336.83 768.71 336.12 767.65 335.06C768.71 334.7 769.77 334 770.47 333.64C770.83 333.64 770.83 332.58 771.18 331.88C771.89 326.93 772.95 321.63 770.12 317.03C769.77 316.68 770.47 315.97 770.47 315.61C772.6 317.03 771.54 315.26 771.89 314.55C771.89 313.85 772.95 313.14 773.3 312.43C772.6 311.73 771.54 311.37 770.83 310.67ZM773.66 252.33C773.66 251.63 773.3 251.27 773.3 250.92C772.95 251.63 772.6 252.33 772.24 253.04C772.24 253.39 772.6 253.75 773.3 255.16C773.66 253.75 773.66 253.04 773.66 252.33ZM775.78 240.67C775.54 240.19 775.43 239.84 775.43 239.61C775.07 240.67 774.72 241.37 774.37 242.43C774.37 242.79 774.72 243.14 775.07 243.49C775.43 242.43 775.78 241.37 775.78 240.67ZM737.6 318.44C737.6 318.44 737.71 318.44 737.95 318.44L737.6 318.44ZM746.08 296.52L746.08 296.88L746.08 296.52ZM751.03 234.66C751.03 234.66 751.03 234.77 751.03 235.01C751.03 234.77 751.03 234.66 751.03 234.66ZM755.98 279.55L756.33 279.55L755.98 279.55Z" />
					<path id="&lt;Compound Path&gt;" fill-rule="evenodd" class="shp0" d="M950.77 241.02C938.04 246.32 917.89 247.74 904.46 253.04C892.44 257.64 885.01 263.65 874.41 270.36C874.76 271.42 875.47 272.48 875.47 273.19C875.82 273.54 876.88 274.61 877.59 274.61C882.18 276.02 882.18 279.55 885.01 283.8C889.96 290.51 895.26 296.88 900.22 303.59C901.28 304.3 902.69 305.36 903.04 306.78C905.16 313.49 907.64 320.21 910.82 326.22C912.59 329.76 913.29 332.58 915.42 335.06C918.95 340.36 918.95 350.26 914.71 354.5C910.11 358.75 906.22 364.76 903.04 369.7C902.69 371.47 900.92 371.83 899.86 372.18C895.26 373.95 890.32 373.95 887.84 380.31C886.43 383.49 884.66 383.49 881.12 381.37C880.77 381.02 879.71 381.37 879.36 381.37C871.23 385.26 862.74 386.67 854.61 385.61C848.6 385.26 842.94 384.55 836.58 383.49C829.16 382.43 823.14 377.84 819.61 369.35C818.55 365.46 818.55 361.57 818.55 358.39C818.55 347.43 817.49 336.47 821.02 325.51C826.68 309.6 835.52 295.82 845.77 284.15C845.42 283.09 844.71 281.68 844 280.97C837.64 273.19 831.63 265.06 826.68 255.51C824.2 251.63 822.44 247.74 820.32 243.85C818.9 240.67 815.37 237.84 815.01 235.01C814.66 232.89 814.66 230.77 815.01 228.65C815.72 223.34 816.08 218.39 817.14 213.09C817.49 208.14 819.61 205.67 821.73 201.42C825.97 194.35 831.98 189.76 838.35 185.87C842.23 184.1 846.48 185.16 850.72 184.45C852.84 184.45 855.67 184.45 858.5 185.16C865.92 185.51 873.7 186.22 881.12 186.93C886.07 187.28 890.32 187.28 895.26 187.64C899.51 187.99 901.28 192.23 901.98 196.47C902.69 200.72 900.92 204.61 897.74 207.79C896.68 208.85 894.56 208.85 893.5 208.14C884.3 203.19 874.76 200.72 864.86 200.01C860.62 200.01 856.73 199.3 852.49 198.95C848.25 198.6 846.12 201.07 847.54 206.02C848.6 209.91 848.95 213.8 846.83 217.33C846.12 218.39 846.12 219.45 846.12 220.87C846.48 228.65 846.48 236.42 851.07 243.14C853.9 247.74 856.02 252.69 858.85 257.28C860.97 260.46 863.8 262.58 865.57 265.06C865.92 265.77 866.28 266.12 866.98 266.12C880.42 256.93 894.56 248.8 909.05 243.14C918.95 239.61 934.86 237.13 944.76 232.89C946.53 232.53 947.94 231.83 950.06 231.83C951.12 231.83 953.24 232.89 953.95 235.01C954.66 237.48 952.89 239.96 950.77 241.02ZM867.69 311.73C864.15 305.01 859.56 299 855.32 292.99C853.9 290.87 852.13 289.81 850.72 287.69C850.72 287.21 850.6 286.98 850.37 286.98C845.42 292.28 841.88 298.64 838.7 306.07C836.23 312.79 833.75 320.92 833.4 327.99C833.4 332.94 832.69 337.18 833.04 341.78C833.04 346.73 834.1 351.32 834.46 354.86C834.46 356.62 834.81 358.04 836.23 358.75C839.41 360.51 842.59 362.64 843.65 367.58C844 368.64 846.48 370.06 846.83 370.06C850.37 367.94 853.19 371.12 856.02 369.7C858.85 369.35 861.68 368.64 864.51 366.88C867.69 364.76 870.17 361.22 873.35 358.75C878.3 354.15 880.42 346.02 879 338.95C876.88 329.4 871.93 320.21 867.69 311.73Z" />
				</g>
				<path id="&lt;Path&gt;" class="shp0" d="M882.36 401.22C882.33 401.98 883.47 402.75 881.7 403.11C876.14 403.85 871.63 401.39 866.06 402.19L865.68 403.44C861.35 402.97 856.84 402.33 852.24 401.89C843.79 402.3 835.38 402.77 827.03 403.55C827.26 403.99 827.38 404.4 826.56 404.6C823.09 405.07 818.25 404.79 813.25 404.88C812.52 404.99 811.79 405.1 811.06 405.2C810.51 405.5 810.38 405.94 810.3 406.21C808.05 406.28 806.04 406.26 804.17 406.22C779.8 409.85 755.19 414.36 728.67 419.55C723.12 421.22 717.57 422.89 712.18 423.92C704.17 425.17 693.81 425.49 685.94 426.19C687.61 430.4 668.8 434.76 673.13 438.71C667.92 439.19 660.1 440.08 659.86 441.35C659.12 445.22 655.66 449.89 642.27 453.99C636.99 455.26 628.54 454.86 626.76 455.87C623.96 457.46 634.08 457.49 631.27 459.08C671.16 454.74 709.37 448.86 749.67 445.7C756.44 444.18 782.97 441.44 810.85 439.86C838.72 438.17 867.91 437.73 879.83 438.03L882 437.97C895.01 438.1 910.8 437.85 921.85 436.31C926.92 435.38 932.08 434.22 937.24 433.11C934.87 432.35 932.67 431.58 930.77 430.83C935.99 431.03 941.21 431.21 943.24 430.48C954.42 428.94 948.19 426.56 943.96 423.45C940.9 422.06 945.14 420.16 940.32 418.73C943.81 418.89 945.56 418.97 949.07 419.13C949.51 417.89 938.27 419.45 940.75 417.5C944.11 418.03 947.91 417.42 951.41 417.58C950.24 415.85 939.28 416.58 939.86 414.98C941.77 414.6 949.66 417.5 950.39 415.45C950.54 415.04 947.03 414.87 945.28 414.79C956.09 414.48 962.13 412.69 952.31 410.14C955.75 410.31 960.57 411.33 964.21 411.16L964.18 411.12C962.37 411 959.26 410.48 957.59 410.4L963.77 410.7C963.45 410.4 963.1 410.1 962.72 409.8C961.19 409.5 959.65 409.25 958.04 409.17L962.15 409.37C961.15 408.67 959.99 407.98 958.71 407.34C953.87 405.86 949.24 403.76 946.6 403.63C925.24 402.13 903.75 401.17 882.36 401.22Z" />
			</g>
			<g id="&lt;Group&gt;">
				<path id="&lt;Compound Path&gt;" fill-rule="evenodd" class="shp0" d="M185.76 1.52L219.35 1.52C238.11 1.52 246.42 11.96 246.42 26.2C246.42 40.33 237.99 51.01 219.35 51.01L194.31 51.01L194.31 79.14L185.76 79.14L185.76 1.52ZM219.47 43.18C232.88 43.18 237.75 35.82 237.75 26.2C237.75 16.59 232.88 9.35 219.47 9.35L194.31 9.35L194.31 43.18L219.47 43.18Z" />
				<path id="&lt;Compound Path&gt;" fill-rule="evenodd" class="shp0" d="M268.74 1.52L303.04 1.52C321.32 1.52 329.4 11.72 329.4 25.49C329.4 38.31 322.51 46.86 309.81 49.23L332.24 79.14L321.92 79.14L300.91 49.71L277.29 49.71L277.29 79.14L268.74 79.14L268.74 1.52ZM303.16 41.87C316.1 41.87 320.73 34.75 320.73 25.49C320.73 16.23 316.1 9.35 303.16 9.35L277.29 9.35L277.29 41.87L303.16 41.87Z" />
				<path id="&lt;Compound Path&gt;" fill-rule="evenodd" class="shp0" d="M351.01 40.33C351.01 17.07 368.1 -0.03 392.31 -0.03C416.53 -0.03 433.62 17.07 433.62 40.33C433.62 63.59 416.53 80.69 392.31 80.69C368.1 80.69 351.01 63.59 351.01 40.33ZM425.07 40.33C425.07 21.58 411.66 7.81 392.31 7.81C372.97 7.81 359.55 21.58 359.55 40.33C359.55 59.08 372.97 72.85 392.31 72.85C411.66 72.85 425.07 59.08 425.07 40.33Z" />
				<path id="&lt;Compound Path&gt;" class="shp0" d="M452.86 51.84L452.86 51.01L461.17 51.01L461.17 51.84C461.17 64.78 468.29 72.85 481.94 72.85C495.59 72.85 502.71 64.78 502.71 51.84L502.71 1.52L511.26 1.52L511.26 51.84C511.26 69.41 500.81 80.69 481.82 80.69C463.19 80.69 452.86 69.53 452.86 51.84Z" />
				<path id="&lt;Compound Path&gt;" class="shp0" d="M537.26 1.52L594.24 1.52L594.24 9.35L545.81 9.35L545.81 35.82L587.35 35.82L587.35 43.65L545.81 43.65L545.81 71.31L594.24 71.31L594.24 79.14L537.26 79.14L537.26 1.52Z" />
				<path id="&lt;Compound Path&gt;" class="shp0" d="M615.61 40.33C615.61 17.07 632.7 -0.03 656.92 -0.03C676.38 -0.03 691.34 11.01 696.32 27.51L687.3 27.51C682.67 15.64 671.4 7.81 656.92 7.81C637.57 7.81 624.16 21.58 624.16 40.33C624.16 59.08 637.57 72.85 656.92 72.85C671.4 72.85 682.67 65.02 687.3 53.15L696.32 53.15C691.34 69.65 676.38 80.69 656.92 80.69C632.7 80.69 615.61 63.59 615.61 40.33Z" />
				<path id="&lt;Compound Path&gt;" class="shp0" d="M736.22 9.35L709.87 9.35L709.87 1.52L771.12 1.52L771.12 9.35L744.77 9.35L744.77 79.14L736.22 79.14L736.22 9.35Z" />
			</g>
			<g id="&lt;Group&gt;">
				<path id="&lt;Path&gt;" class="shp1" d="M332.1 135.05L185.76 135.05L185.76 116.54L332.1 116.54L332.1 135.05Z" />
				<path id="&lt;Path&gt;" class="shp2" d="M432.04 135.05L332.1 135.05L332.1 116.54L432.04 116.54L432.04 135.05Z" />
				<path id="&lt;Path&gt;" class="shp3" d="M624.78 135.05L500.54 135.05L500.54 116.54L624.78 116.54L624.78 135.05Z" />
				<path id="&lt;Path&gt;" class="shp4" d="M771.12 135.05L624.78 135.05L624.78 116.54L771.12 116.54L771.12 135.05Z" />
			</g>
		</g>
	</g>
</svg>